<?xml version="1.0" encoding="UTF-8"?>
<!DOCTYPE svg PUBLIC "-//W3C//DTD SVG 1.1//EN" "http://www.w3.org/Graphics/SVG/1.1/DTD/svg11.dtd">
<!-- Creator: CorelDRAW Standard 2021 (64-Bit) -->
<svg xmlns="http://www.w3.org/2000/svg" xml:space="preserve" width="121px" height="121px" version="1.1" style="shape-rendering:geometricPrecision; text-rendering:geometricPrecision; image-rendering:optimizeQuality; fill-rule:evenodd; clip-rule:evenodd"
viewBox="0 0 303.977 303.971"
 xmlns:xlink="http://www.w3.org/1999/xlink"
 xmlns:xodm="http://www.corel.com/coreldraw/odm/2003">
 <defs>
  <style type="text/css">
   <![CDATA[
    .fil0 {fill:white}
   ]]>
  </style>
 </defs>
 <g id="Layer_x0020_1">
  <metadata id="CorelCorpID_0Corel-Layer"/>
  <path class="fil0" d="M176.342 226.517l83.577 -83.596c27.426,-27.429 27.426,-71.899 -0.01,-99.323 -27.426,-27.423 -71.897,-27.418 -99.32,0.011l-83.58 83.6c-27.423,27.428 -27.418,71.895 0.011,99.317 27.429,27.423 71.899,27.42 99.322,-0.01l0 0.001zm99.587 -198.938c-36.279,-36.269 -95.089,-36.26 -131.358,0.018l-83.581 83.596c-36.267,36.275 -36.26,95.086 0.018,131.354 36.275,36.269 95.086,36.261 131.355,-0.014l83.575 -83.599c36.27,-36.275 36.27,-95.086 -0.01,-131.353l0.001 -0.002z"/>
  <path class="fil0" d="M280.91 211.09l0 -118.21c0,-38.79 -31.45,-70.233 -70.235,-70.233 -38.786,0 -70.227,31.445 -70.227,70.233l0 118.21c0,38.79 31.443,70.232 70.227,70.232 38.786,0 70.235,-31.443 70.235,-70.232zm-70.235 -211.09c-51.295,0 -92.879,41.583 -92.879,92.88l0 118.21c0,51.298 41.585,92.881 92.879,92.881 51.299,0 92.889,-41.583 92.889,-92.881l0 -118.21c0,-51.297 -41.59,-92.88 -92.889,-92.88z"/>
  <path class="fil0" d="M92.882 163.107l118.214 0c38.792,0 70.23,-31.443 70.23,-70.227 0,-38.79 -31.438,-70.233 -70.23,-70.233l-118.214 0c-38.786,0 -70.229,31.445 -70.229,70.233 0,38.786 31.443,70.227 70.229,70.227zm211.095 -70.227c0,-51.297 -41.586,-92.88 -92.881,-92.88l-118.214 0c-51.295,0 -92.881,41.583 -92.881,92.88 0,51.295 41.586,92.879 92.881,92.879l118.214 0c51.295,0 92.881,-41.586 92.881,-92.879z"/>
 </g>
</svg>
